<svg xmlns="http://www.w3.org/2000/svg" xmlns:xlink="http://www.w3.org/1999/xlink" width="1370" zoomAndPan="magnify" viewBox="0 0 1027.5 487.499991" height="650" preserveAspectRatio="xMidYMid meet" version="1.0"><defs><g/><clipPath id="id1"><path d="M 27 95 L 445 95 L 445 377.839844 L 27 377.839844 Z M 27 95 " clip-rule="nonzero"/></clipPath></defs><g clip-path="url(#id1)"><path fill="#f94d1f" d="M 440.019531 236.039062 C 383.792969 142.550781 356.859375 94.128906 274.226562 96.015625 C 274.226562 96.015625 272.371094 106.066406 270.371094 122.554688 C 259.949219 124.957031 248.328125 126.3125 236.0625 126.3125 C 223.792969 126.3125 212.171875 124.957031 201.75 122.554688 C 199.75 106.066406 197.894531 96.015625 197.894531 96.015625 C 115.261719 94.128906 88.328125 142.550781 32.101562 236.039062 C 0.71875 288.226562 138.835938 303.144531 138.835938 303.144531 L 144.523438 265.488281 L 96.894531 250.113281 C 87.898438 247.875 78.445312 245.917969 70.71875 245.226562 C 70.71875 245.226562 79.449219 244.269531 94.578125 245.582031 L 126.183594 196.339844 C 183.480469 272.535156 156.773438 377.824219 156.773438 377.824219 C 215.3125 316.023438 209.164062 188.351562 202.4375 128.417969 C 212.730469 130.640625 224.070312 131.871094 236.0625 131.871094 C 248.050781 131.871094 259.390625 130.640625 269.683594 128.417969 C 262.957031 188.355469 256.808594 316.023438 315.347656 377.824219 C 315.347656 377.824219 288.644531 272.535156 345.9375 196.339844 L 377.542969 245.582031 C 392.671875 244.269531 401.402344 245.226562 401.402344 245.226562 C 393.675781 245.917969 384.222656 247.875 375.226562 250.113281 L 327.597656 265.488281 L 333.285156 303.144531 C 333.285156 303.144531 471.40625 288.226562 440.019531 236.039062 " fill-opacity="1" fill-rule="nonzero"/></g><path stroke-linecap="butt" transform="matrix(1.998171, 0, 0, 1.998171, 400.679199, 230.359541)" fill="none" stroke-linejoin="miter" d="M 63.742136 91.865187 C 55.367289 91.865187 49.316834 89.792979 45.592725 85.648564 C 41.868615 81.488509 40.005583 74.783157 40.005583 65.532509 L 40.005583 56.510586 L 58.154995 56.510586 L 58.154995 67.997654 C 58.154995 72.597565 59.62509 74.896542 62.561369 74.896542 C 64.205451 74.896542 65.35103 74.415634 65.998106 73.453817 C 66.645182 72.474405 66.967743 70.840098 66.967743 68.54894 C 66.967743 65.542284 66.609994 63.057589 65.892541 61.100722 C 65.175088 59.124305 64.258233 57.472403 63.138068 56.143062 C 62.037452 54.813722 60.053216 52.751288 57.185358 49.953808 L 49.238637 42.005132 C 43.082616 35.99182 40.005583 29.329476 40.005583 22.020057 C 40.005583 14.151532 41.815833 8.163634 45.434377 4.054407 C 49.054875 -0.0724146 54.335095 -2.134848 61.276991 -2.134848 C 69.581461 -2.134848 75.56154 0.0683391 79.217227 4.474713 C 82.87096 8.879132 84.698803 15.7702 84.698803 25.142053 L 65.892541 25.142053 L 65.786975 18.79445 C 65.786975 17.588269 65.446821 16.626452 64.764556 15.908999 C 64.082291 15.191546 63.138068 14.833797 61.931887 14.833797 C 60.498936 14.833797 59.423734 15.226734 58.706281 16.014564 C 57.988828 16.800439 57.631079 17.875641 57.631079 19.24017 C 57.631079 22.246827 59.343582 25.359048 62.7725 28.576835 L 73.524521 38.885091 C 76.024855 41.332642 78.097062 43.649214 79.741144 45.834806 C 81.40282 48.020399 82.730206 50.600884 83.727212 53.572352 C 84.724217 56.545774 85.22272 60.068528 85.22272 64.142566 C 85.22272 73.234866 83.561044 80.133754 80.239647 84.837275 C 76.916295 89.523201 71.417125 91.865187 63.742136 91.865187 Z M 88.870588 90.99916 L 97.7889 -1.270776 L 129.051868 -1.270776 L 137.864616 90.99916 L 120.372055 90.99916 L 119.060308 76.075355 L 107.886026 76.075355 L 106.810824 90.99916 Z M 109.303338 61.36268 L 117.670365 61.36268 L 113.604146 14.41349 L 112.73812 14.41349 Z M 143.463487 90.99916 L 143.463487 -1.270776 L 161.92764 -1.270776 L 161.92764 75.314894 L 180.943078 75.314894 L 180.943078 90.99916 Z M 186.109913 90.99916 L 186.109913 -1.270776 L 223.063632 -1.270776 L 223.063632 16.538481 L 204.888807 16.538481 L 204.888807 34.504131 L 222.303171 34.504131 L 222.303171 51.893082 L 204.888807 51.893082 L 204.888807 73.060879 L 224.2444 73.060879 L 224.2444 90.99916 Z M 252.268077 91.865187 C 243.891275 91.865187 237.842774 89.792979 234.11671 85.648564 C 230.392601 81.488509 228.531524 74.783157 228.531524 65.532509 L 228.531524 56.510586 L 246.680936 56.510586 L 246.680936 67.997654 C 246.680936 72.597565 248.149076 74.896542 251.08731 74.896542 C 252.731391 74.896542 253.87697 74.415634 254.522092 73.453817 C 255.169168 72.474405 255.493683 70.840098 255.493683 68.54894 C 255.493683 65.542284 255.135934 63.057589 254.418481 61.100722 C 253.701028 59.124305 252.782219 57.472403 251.664009 56.143062 C 250.563393 54.813722 248.577201 52.751288 245.711299 49.953808 L 237.762623 42.005132 C 231.608557 35.99182 228.531524 29.329476 228.531524 22.020057 C 228.531524 14.151532 230.339818 8.163634 233.960317 4.054407 C 237.578861 -0.0724146 242.861036 -2.134848 249.800977 -2.134848 C 258.107402 -2.134848 264.087481 0.0683391 267.741213 4.474713 C 271.3969 8.879132 273.222789 15.7702 273.222789 25.142053 L 254.418481 25.142053 L 254.312916 18.79445 C 254.312916 17.588269 253.972761 16.626452 253.290497 15.908999 C 252.608232 15.191546 251.664009 14.833797 250.457828 14.833797 C 249.022922 14.833797 247.947719 15.226734 247.232221 16.014564 C 246.514768 16.800439 246.157019 17.875641 246.157019 19.24017 C 246.157019 22.246827 247.869523 25.359048 251.296485 28.576835 L 262.050462 38.885091 C 264.550795 41.332642 266.623003 43.649214 268.267085 45.834806 C 269.926806 48.020399 271.256147 50.600884 272.253152 53.572352 C 273.250158 56.545774 273.748661 60.068528 273.748661 64.142566 C 273.748661 73.234866 272.086985 80.133754 268.765588 84.837275 C 265.442236 89.523201 259.943065 91.865187 252.268077 91.865187 Z M 252.268077 91.865187 " stroke="#f94d1f" stroke-width="3.088883" stroke-opacity="1" stroke-miterlimit="4"/><g fill="#f94d1f" fill-opacity="1"><g transform="translate(445.777506, 208.072524)"><g><path d="M 45.65625 1.53125 C 33.632812 1.53125 24.007812 -2.238281 16.78125 -9.78125 C 9.5625 -17.332031 5.953125 -27.691406 5.953125 -40.859375 L 5.953125 -116.84375 C 5.953125 -133.21875 9.210938 -145.5625 15.734375 -153.875 C 22.253906 -162.1875 32.488281 -166.34375 46.4375 -166.34375 C 58.582031 -166.34375 68.363281 -163.015625 75.78125 -156.359375 C 83.195312 -149.710938 86.90625 -140.125 86.90625 -127.59375 L 86.90625 -99.1875 L 54.109375 -99.1875 L 54.109375 -123.5625 C 54.109375 -128.289062 53.53125 -131.550781 52.375 -133.34375 C 51.226562 -135.132812 49.25 -136.03125 46.4375 -136.03125 C 43.488281 -136.03125 41.46875 -135.003906 40.375 -132.953125 C 39.289062 -130.910156 38.75 -127.90625 38.75 -123.9375 L 38.75 -41.25 C 38.75 -36.90625 39.390625 -33.738281 40.671875 -31.75 C 41.953125 -29.769531 43.875 -28.78125 46.4375 -28.78125 C 51.550781 -28.78125 54.109375 -32.9375 54.109375 -41.25 L 54.109375 -70.984375 L 87.296875 -70.984375 L 87.296875 -39.90625 C 87.296875 -12.28125 73.414062 1.53125 45.65625 1.53125 Z M 45.65625 1.53125 "/></g></g></g><g fill="#f94d1f" fill-opacity="1"><g transform="translate(536.717145, 208.072524)"><g><path d="M 46.625 1.53125 C 33.320312 1.53125 23.21875 -2.523438 16.3125 -10.640625 C 9.40625 -18.765625 5.953125 -30.179688 5.953125 -44.890625 L 5.953125 -123.359375 C 5.953125 -137.554688 9.40625 -148.269531 16.3125 -155.5 C 23.21875 -162.726562 33.320312 -166.34375 46.625 -166.34375 C 59.925781 -166.34375 70.03125 -162.726562 76.9375 -155.5 C 83.84375 -148.269531 87.296875 -137.554688 87.296875 -123.359375 L 87.296875 -44.890625 C 87.296875 -30.054688 83.84375 -18.609375 76.9375 -10.546875 C 70.03125 -2.492188 59.925781 1.53125 46.625 1.53125 Z M 46.625 -28.78125 C 49.5625 -28.78125 51.539062 -30.054688 52.5625 -32.609375 C 53.59375 -35.171875 54.109375 -38.753906 54.109375 -43.359375 L 54.109375 -123.9375 C 54.109375 -127.519531 53.625 -130.429688 52.65625 -132.671875 C 51.695312 -134.910156 49.75 -136.03125 46.8125 -136.03125 C 41.3125 -136.03125 38.5625 -131.875 38.5625 -123.5625 L 38.5625 -43.171875 C 38.5625 -38.429688 39.132812 -34.847656 40.28125 -32.421875 C 41.4375 -29.992188 43.550781 -28.78125 46.625 -28.78125 Z M 46.625 -28.78125 "/></g></g></g><g fill="#f94d1f" fill-opacity="1"><g transform="translate(629.959029, 208.072524)"><g><path d="M 7.296875 -164.8125 L 52.765625 -164.8125 C 64.523438 -164.8125 73.347656 -161.546875 79.234375 -155.015625 C 85.117188 -148.492188 88.125 -138.835938 88.25 -126.046875 L 88.640625 -48.921875 C 88.765625 -32.679688 85.945312 -20.46875 80.1875 -12.28125 C 74.4375 -4.09375 64.910156 0 51.609375 0 L 7.296875 0 Z M 46.234375 -29.15625 C 52.242188 -29.15625 55.25 -32.097656 55.25 -37.984375 L 55.25 -122.984375 C 55.25 -126.691406 54.960938 -129.472656 54.390625 -131.328125 C 53.816406 -133.179688 52.757812 -134.425781 51.21875 -135.0625 C 49.6875 -135.707031 47.320312 -136.03125 44.125 -136.03125 L 40.484375 -136.03125 L 40.484375 -29.15625 Z M 46.234375 -29.15625 "/></g></g></g><g fill="#f94d1f" fill-opacity="1"><g transform="translate(724.54392, 208.072524)"><g><path d="M 7.296875 0 L 7.296875 -164.8125 L 73.296875 -164.8125 L 73.296875 -132.953125 L 40.859375 -132.953125 L 40.859375 -100.921875 L 71.953125 -100.921875 L 71.953125 -69.84375 L 40.859375 -69.84375 L 40.859375 -32.046875 L 75.40625 -32.046875 L 75.40625 0 Z M 7.296875 0 "/></g></g></g><g fill="#f94d1f" fill-opacity="1"><g transform="translate(803.588504, 208.072524)"><g><path d="M 7.296875 -164.8125 L 57.9375 -164.8125 C 66 -164.8125 72.234375 -162.988281 76.640625 -159.34375 C 81.054688 -155.695312 84.03125 -150.578125 85.5625 -143.984375 C 87.101562 -137.398438 87.875 -128.992188 87.875 -118.765625 C 87.875 -109.421875 86.65625 -102.125 84.21875 -96.875 C 81.789062 -91.632812 77.570312 -87.992188 71.5625 -85.953125 C 76.550781 -84.929688 80.164062 -82.4375 82.40625 -78.46875 C 84.644531 -74.5 85.765625 -69.128906 85.765625 -62.359375 L 85.375 0 L 53.140625 0 L 53.140625 -64.46875 C 53.140625 -69.070312 52.242188 -72.007812 50.453125 -73.28125 C 48.660156 -74.5625 45.398438 -75.203125 40.671875 -75.203125 L 40.671875 0 L 7.296875 0 Z M 48.734375 -103.796875 C 53.335938 -103.796875 55.640625 -108.785156 55.640625 -118.765625 C 55.640625 -123.109375 55.445312 -126.367188 55.0625 -128.546875 C 54.675781 -130.722656 53.972656 -132.222656 52.953125 -133.046875 C 51.929688 -133.878906 50.460938 -134.296875 48.546875 -134.296875 L 40.859375 -134.296875 L 40.859375 -103.796875 Z M 48.734375 -103.796875 "/></g></g></g><g fill="#f94d1f" fill-opacity="1"><g transform="translate(895.103696, 208.072524)"><g><path d="M 3.0625 0 L 3.0625 -29.9375 L 40.671875 -134.5 L 6.71875 -134.5 L 6.71875 -164.8125 L 75.59375 -164.8125 L 75.59375 -136.03125 L 37.03125 -30.3125 L 73.859375 -30.3125 L 73.859375 0 Z M 3.0625 0 "/></g></g></g></svg>