<svg xmlns="http://www.w3.org/2000/svg" xmlns:xlink="http://www.w3.org/1999/xlink" width="300" zoomAndPan="magnify" viewBox="0 0 224.87999 225" height="300" preserveAspectRatio="xMidYMid meet" version="1.0"><defs><g/><clipPath id="id1"><path d="M 0 0.0585938 L 224.761719 0.0585938 L 224.761719 224.9375 L 0 224.9375 Z M 0 0.0585938 " clip-rule="nonzero"/></clipPath><clipPath id="id2"><path d="M 56 7 L 169 7 L 169 82.464844 L 56 82.464844 Z M 56 7 " clip-rule="nonzero"/></clipPath></defs><g clip-path="url(#id1)"><path fill="#ffffff" d="M 0 0.0585938 L 224.878906 0.0585938 L 224.878906 232.4375 L 0 232.4375 Z M 0 0.0585938 " fill-opacity="1" fill-rule="nonzero"/><path fill="#393536" d="M 0 0.0585938 L 224.878906 0.0585938 L 224.878906 224.941406 L 0 224.941406 Z M 0 0.0585938 " fill-opacity="1" fill-rule="nonzero"/><path fill="#ffffff" d="M 0 0.0585938 L 224.878906 0.0585938 L 224.878906 224.941406 L 0 224.941406 Z M 0 0.0585938 " fill-opacity="1" fill-rule="nonzero"/><path fill="#393536" d="M 0 0.0585938 L 224.878906 0.0585938 L 224.878906 224.941406 L 0 224.941406 Z M 0 0.0585938 " fill-opacity="1" fill-rule="nonzero"/></g><g clip-path="url(#id2)"><path fill="#f94d1f" d="M 166.871094 44.691406 C 151.875 19.785156 144.695312 6.886719 122.65625 7.386719 C 122.65625 7.386719 122.164062 10.066406 121.628906 14.457031 C 118.851562 15.097656 115.75 15.457031 112.480469 15.457031 C 109.207031 15.457031 106.109375 15.097656 103.332031 14.457031 C 102.796875 10.066406 102.300781 7.386719 102.300781 7.386719 C 80.265625 6.886719 73.082031 19.785156 58.089844 44.691406 C 49.71875 58.59375 86.550781 62.566406 86.550781 62.566406 L 88.070312 52.535156 L 75.367188 48.441406 C 72.96875 47.84375 70.449219 47.324219 68.386719 47.136719 C 68.386719 47.136719 70.714844 46.882812 74.75 47.234375 L 83.179688 34.113281 C 98.457031 54.414062 91.335938 82.460938 91.335938 82.460938 C 106.945312 66 105.308594 31.984375 103.511719 16.019531 C 106.257812 16.613281 109.28125 16.941406 112.480469 16.941406 C 115.675781 16.941406 118.699219 16.613281 121.445312 16.019531 C 119.652344 31.988281 118.011719 66 133.625 82.460938 C 133.625 82.460938 126.503906 54.414062 141.78125 34.113281 L 150.210938 47.234375 C 154.242188 46.882812 156.574219 47.136719 156.574219 47.136719 C 154.511719 47.324219 151.992188 47.84375 149.589844 48.441406 L 136.890625 52.535156 L 138.40625 62.566406 C 138.40625 62.566406 175.238281 58.59375 166.871094 44.691406 " fill-opacity="1" fill-rule="nonzero"/></g><path stroke-linecap="butt" transform="matrix(0.651633, 0, 0, 0.651633, 11.639376, 151.881614)" fill="none" stroke-linejoin="miter" d="M 63.742054 91.868445 C 55.367656 91.868445 49.319147 89.794328 45.590532 85.652088 C 41.867911 81.48587 40.003603 74.783954 40.003603 65.534351 L 40.003603 56.512541 L 58.155126 56.512541 L 58.155126 67.998114 C 58.155126 72.59594 59.623793 74.897851 62.561126 74.897851 C 64.203635 74.897851 65.348596 74.412292 65.996008 73.453162 C 66.64342 72.476049 66.967126 70.839535 66.967126 68.549614 C 66.967126 65.540345 66.607453 63.058598 65.894101 61.098378 C 65.174754 59.126168 64.257586 57.47167 63.136604 56.140878 C 62.0396 54.816081 60.055401 52.747958 57.184007 49.954494 L 49.235223 42.00571 C 43.084806 35.993168 40.003603 29.327219 40.003603 22.019852 C 40.003603 14.148997 41.81396 8.160434 45.434673 4.054161 C 49.055386 -0.0700948 54.336592 -2.138217 61.278291 -2.138217 C 69.580754 -2.138217 75.563323 0.06778 79.214009 4.47378 C 82.87069 8.879781 84.69903 15.767528 84.69903 25.143017 L 65.894101 25.143017 L 65.786198 18.79478 C 65.786198 17.589874 65.444509 16.62475 64.767124 15.911397 C 64.083744 15.192051 63.136604 14.832377 61.931697 14.832377 C 60.498998 14.832377 59.425972 15.228018 58.706625 16.013305 C 57.987278 16.798592 57.633599 17.877613 57.633599 19.238377 C 57.633599 22.247646 59.342048 25.358821 62.770936 28.577899 L 73.525173 38.882545 C 76.024904 41.334319 78.099021 43.648219 79.74153 45.836232 C 81.402023 48.018252 82.732815 50.601906 83.727911 53.575207 C 84.723008 56.542513 85.220556 60.067314 85.220556 64.143613 C 85.220556 73.237358 83.560064 80.1311 80.239078 84.836828 C 76.918093 89.524573 71.415089 91.868445 63.742054 91.868445 Z M 88.871242 90.999234 L 97.791145 -1.269006 L 129.052766 -1.269006 L 137.864767 90.999234 L 120.372646 90.999234 L 119.059838 76.078779 L 107.885981 76.078779 L 106.812955 90.999234 Z M 109.300697 61.362138 L 117.6691 61.362138 L 113.60479 14.412758 L 112.741573 14.412758 Z M 143.463684 90.999234 L 143.463684 -1.269006 L 161.926924 -1.269006 L 161.926924 75.31747 L 180.941663 75.31747 L 180.941663 90.999234 Z M 186.108972 90.999234 L 186.108972 -1.269006 L 223.065424 -1.269006 L 223.065424 16.540826 L 204.889923 16.540826 L 204.889923 34.506517 L 222.304115 34.506517 L 222.304115 51.896731 L 204.889923 51.896731 L 204.889923 73.057521 L 224.246352 73.057521 L 224.246352 90.999234 Z M 252.264917 91.868445 C 243.890519 91.868445 237.84201 89.794328 234.119389 85.652088 C 230.390774 81.48587 228.532461 74.783954 228.532461 65.534351 L 228.532461 56.512541 L 246.677989 56.512541 L 246.677989 67.998114 C 246.677989 72.59594 248.146655 74.897851 251.089983 74.897851 C 252.732492 74.897851 253.877453 74.412292 254.524865 73.453162 C 255.172278 72.476049 255.495984 70.839535 255.495984 68.549614 C 255.495984 65.540345 255.13631 63.058598 254.416963 61.098378 C 253.703611 59.126168 252.780449 57.47167 251.665461 56.140878 C 250.562462 54.816081 248.578264 52.747958 245.712865 49.954494 L 237.76408 42.00571 C 231.607669 35.993168 228.532461 29.327219 228.532461 22.019852 C 228.532461 14.148997 230.342817 8.160434 233.957536 4.054161 C 237.578249 -0.0700948 242.859455 -2.138217 249.801153 -2.138217 C 258.109611 -2.138217 264.086186 0.06778 267.742866 4.47378 C 271.393552 8.879781 273.221893 15.767528 273.221893 25.143017 L 254.416963 25.143017 L 254.315056 18.79478 C 254.315056 17.589874 253.973366 16.62475 253.289986 15.911397 C 252.606607 15.192051 251.665461 14.832377 250.460555 14.832377 C 249.021861 14.832377 247.948835 15.228018 247.229488 16.013305 C 246.516136 16.798592 246.156462 17.877613 246.156462 19.238377 C 246.156462 22.247646 247.870906 25.358821 251.299793 28.577899 L 262.048036 38.882545 C 264.553761 41.334319 266.621884 43.648219 268.264393 45.836232 C 269.924886 48.018252 271.255677 50.601906 272.250774 53.575207 C 273.251865 56.542513 273.749414 60.067314 273.749414 64.143613 C 273.749414 73.237358 272.088921 80.1311 268.761941 84.836828 C 265.440956 89.524573 259.943946 91.868445 252.264917 91.868445 Z M 252.264917 91.868445 " stroke="#f94d1f" stroke-width="3.088883" stroke-opacity="1" stroke-miterlimit="4"/><g fill="#f94d1f" fill-opacity="1"><g transform="translate(26.346593, 144.613498)"><g><path d="M 14.890625 0.5 C 10.972656 0.5 7.832031 -0.726562 5.46875 -3.1875 C 3.113281 -5.644531 1.9375 -9.023438 1.9375 -13.328125 L 1.9375 -38.09375 C 1.9375 -43.4375 3 -47.460938 5.125 -50.171875 C 7.257812 -52.878906 10.597656 -54.234375 15.140625 -54.234375 C 19.097656 -54.234375 22.285156 -53.148438 24.703125 -50.984375 C 27.128906 -48.816406 28.34375 -45.691406 28.34375 -41.609375 L 28.34375 -32.34375 L 17.640625 -32.34375 L 17.640625 -40.296875 C 17.640625 -41.835938 17.453125 -42.898438 17.078125 -43.484375 C 16.703125 -44.066406 16.054688 -44.359375 15.140625 -44.359375 C 14.179688 -44.359375 13.523438 -44.023438 13.171875 -43.359375 C 12.816406 -42.691406 12.640625 -41.710938 12.640625 -40.421875 L 12.640625 -13.453125 C 12.640625 -12.035156 12.847656 -11.003906 13.265625 -10.359375 C 13.679688 -9.710938 14.304688 -9.390625 15.140625 -9.390625 C 16.804688 -9.390625 17.640625 -10.742188 17.640625 -13.453125 L 17.640625 -23.140625 L 28.46875 -23.140625 L 28.46875 -13.015625 C 28.46875 -4.003906 23.941406 0.5 14.890625 0.5 Z M 14.890625 0.5 "/></g></g></g><g fill="#f94d1f" fill-opacity="1"><g transform="translate(56.003336, 144.613498)"><g><path d="M 15.203125 0.5 C 10.867188 0.5 7.570312 -0.820312 5.3125 -3.46875 C 3.0625 -6.113281 1.9375 -9.835938 1.9375 -14.640625 L 1.9375 -40.234375 C 1.9375 -44.859375 3.0625 -48.347656 5.3125 -50.703125 C 7.570312 -53.054688 10.867188 -54.234375 15.203125 -54.234375 C 19.535156 -54.234375 22.828125 -53.054688 25.078125 -50.703125 C 27.335938 -48.347656 28.46875 -44.859375 28.46875 -40.234375 L 28.46875 -14.640625 C 28.46875 -9.796875 27.335938 -6.0625 25.078125 -3.4375 C 22.828125 -0.8125 19.535156 0.5 15.203125 0.5 Z M 15.203125 -9.390625 C 16.160156 -9.390625 16.804688 -9.804688 17.140625 -10.640625 C 17.472656 -11.472656 17.640625 -12.640625 17.640625 -14.140625 L 17.640625 -40.421875 C 17.640625 -41.585938 17.484375 -42.535156 17.171875 -43.265625 C 16.859375 -43.992188 16.222656 -44.359375 15.265625 -44.359375 C 13.472656 -44.359375 12.578125 -43.003906 12.578125 -40.296875 L 12.578125 -14.078125 C 12.578125 -12.535156 12.765625 -11.367188 13.140625 -10.578125 C 13.515625 -9.785156 14.203125 -9.390625 15.203125 -9.390625 Z M 15.203125 -9.390625 "/></g></g></g><g fill="#f94d1f" fill-opacity="1"><g transform="translate(86.410876, 144.613498)"><g><path d="M 2.375 -53.734375 L 17.203125 -53.734375 C 21.035156 -53.734375 23.910156 -52.671875 25.828125 -50.546875 C 27.753906 -48.421875 28.738281 -45.273438 28.78125 -41.109375 L 28.90625 -15.953125 C 28.945312 -10.660156 28.023438 -6.675781 26.140625 -4 C 24.265625 -1.332031 21.160156 0 16.828125 0 L 2.375 0 Z M 15.078125 -9.515625 C 17.035156 -9.515625 18.015625 -10.472656 18.015625 -12.390625 L 18.015625 -40.109375 C 18.015625 -41.316406 17.921875 -42.222656 17.734375 -42.828125 C 17.546875 -43.429688 17.203125 -43.835938 16.703125 -44.046875 C 16.203125 -44.253906 15.429688 -44.359375 14.390625 -44.359375 L 13.203125 -44.359375 L 13.203125 -9.515625 Z M 15.078125 -9.515625 "/></g></g></g><g fill="#f94d1f" fill-opacity="1"><g transform="translate(117.25639, 144.613498)"><g><path d="M 2.375 0 L 2.375 -53.734375 L 23.90625 -53.734375 L 23.90625 -43.359375 L 13.328125 -43.359375 L 13.328125 -32.90625 L 23.453125 -32.90625 L 23.453125 -22.765625 L 13.328125 -22.765625 L 13.328125 -10.453125 L 24.59375 -10.453125 L 24.59375 0 Z M 2.375 0 "/></g></g></g><g fill="#f94d1f" fill-opacity="1"><g transform="translate(143.033982, 144.613498)"><g><path d="M 2.375 -53.734375 L 18.890625 -53.734375 C 21.515625 -53.734375 23.546875 -53.140625 24.984375 -51.953125 C 26.429688 -50.765625 27.40625 -49.097656 27.90625 -46.953125 C 28.40625 -44.804688 28.65625 -42.0625 28.65625 -38.71875 C 28.65625 -35.675781 28.257812 -33.300781 27.46875 -31.59375 C 26.675781 -29.882812 25.296875 -28.695312 23.328125 -28.03125 C 24.960938 -27.695312 26.144531 -26.882812 26.875 -25.59375 C 27.601562 -24.300781 27.96875 -22.546875 27.96875 -20.328125 L 27.84375 0 L 17.328125 0 L 17.328125 -21.015625 C 17.328125 -22.515625 17.035156 -23.472656 16.453125 -23.890625 C 15.867188 -24.316406 14.804688 -24.53125 13.265625 -24.53125 L 13.265625 0 L 2.375 0 Z M 15.890625 -33.84375 C 17.390625 -33.84375 18.140625 -35.46875 18.140625 -38.71875 C 18.140625 -40.144531 18.078125 -41.210938 17.953125 -41.921875 C 17.828125 -42.628906 17.597656 -43.117188 17.265625 -43.390625 C 16.929688 -43.660156 16.453125 -43.796875 15.828125 -43.796875 L 13.328125 -43.796875 L 13.328125 -33.84375 Z M 15.890625 -33.84375 "/></g></g></g><g fill="#f94d1f" fill-opacity="1"><g transform="translate(172.878422, 144.613498)"><g><path d="M 1 0 L 1 -9.765625 L 13.265625 -43.859375 L 2.1875 -43.859375 L 2.1875 -53.734375 L 24.65625 -53.734375 L 24.65625 -44.359375 L 12.078125 -9.890625 L 24.09375 -9.890625 L 24.09375 0 Z M 1 0 "/></g></g></g></svg>